{"title":"Finders Keepers - The Root of All Evil (2013) WEBRip","uid":8349349,"size":908341683,"categoryP":"video","categoryS":"movies","magnet":"?xt=urn:btih:29bb7add849732c9b76de8698e54730d9d4515ea&amp;dn=Finders+Keepers+-+The+Root+of+All+Evil+%282013%29+WEBRip&amp;tr=udp%3A%2F%2Ftracker.openbittorrent.com%3A80&amp;tr=udp%3A%2F%2Fopen.demonii.com%3A1337&amp;tr=udp%3A%2F%2Ftracker.coppersurfer.tk%3A6969&amp;tr=udp%3A%2F%2Fexodus.desync.com%3A6969","seeders":1,"leechers":0,"uploader":"RadioResearch","files":3,"time":1365285962,"description":"*******************************************************************************\n              Finders Keepers: The Root of All Evil (2013) WEBRip\n*******************************************************************************\n\n-------------------------------------------------------------------------------\n                              General Information\n-------------------------------------------------------------------------------\nType.................: Movie\n\n\n\nVideo Format.........: AVI\nVideo Bitrate........: 1657\nResolution...........: 640 x 360\nColor................: 8 bit\nFPS..................: 29.970\nSource...............: WEB 16:9\nOriginal Format......: NTSC\nGenre................: Action / Horror /Thriller\nIMDb Rating..........: 7.4\nMovie Information....: http://www.imdb.com/title/tt2219868/\n\n-------------------------------------------------------------------------------\n                               Post Information\n-------------------------------------------------------------------------------\nPosted by............: RadioResearch\nPosted on............: 4/6/2013\n\n-------------------------------------------------------------------------------\n                                 Release Notes\n-------------------------------------------------------------------------------\nSEEDBOX SUPPORTED!!\n\nA high stakes poker game. A drug lord. A million dollars. A set of ruthless \nkillers who want it all. \n\nThis was a great film with two exceptions: 1. There were a couple of parts in \nthe film that just went white for half-a-second or so, like during a gunshot.  I \ndon;t know whether this was planned, or somehow a workprint got released.  2.) \nAlmost ten minutes of credits at the end moving so slowly my mother in her \nwalker could pass them.  There is an Easter Egg after the credits so don't stop \nwatching. \n\nThe film is supposed to be 90 minutes according to IMDB, but this release is only\n73 minutes hinting further at a workprint. \n\nThe film overall had a lot of action and great acting, but the gunshot scenes \nwere a little bit badly done with the CGI.  The plot and follow-through more \nthan made up for that.  This film was professionally done.\n\nThe film is somewhat minimally halting, and I tried encoding at both 29.970 and \nthe original frame rate of 29.000 but it made no difference.  It was that way on \nthe web as well, so it's not on my end.  I just tried to fix it without success.\n\nEnjoy it nonetheless!\nRadioResearch\n\nGeneral\nComplete name                            : G:DownloadsFinders Keepers - The \nRoot of All Evil (2013) WEBRipFinders Keepers  The Root of All Evil.avi\nFormat                                   : AVI\nFormat/Info                              : Audio Video Interleave\nFile size                                : 866 MiB\nDuration                                 : 1h 13mn\nOverall bit rate                         : 1 657 Kbps\n\nVideo\nID                                       : 0\nFormat                                   : MPEG-4 Visual\nFormat profile                           : Simple@L3\nFormat settings, BVOP                    : No\nFormat settings, QPel                    : No\nFormat settings, GMC                     : No warppoints\nFormat settings, Matrix                  : Default (H.263)\nCodec ID                                 : XVID\nCodec ID/Hint                            : XviD\nDuration                                 : 1h 13mn\nBit rate                                 : 1 516 Kbps\nWidth                                    : 640 pixels\nHeight                                   : 360 pixels\nDisplay aspect ratio                     : 16:9\nFrame rate                               : 29.970 fps\nOriginal frame rate                      : 29.000 fps\nColor space                              : YUV\nChroma subsampling                       : 4:2:0\nBit depth                                : 8 bits\nScan type                                : Progressive\nCompression mode                         : Lossy\nBits/(Pixel*Frame)                       : 0.220\nStream size                              : 792 MiB (91%)\nWriting library                          : XviD 1.2.1 (UTC 2008-12-04)\n\nAudio\nID                                       : 1\nFormat                                   : MPEG Audio\nFormat version                           : Version 1\nFormat profile                           : Layer 3\nMode                                     : Joint stereo\nMode extension                           : MS Stereo\nCodec ID                                 : 55\nCodec ID/Hint                            : MP3\nDuration                                 : 1h 13mn\nBit rate mode                            : Constant\nBit rate                                 : 128 Kbps\nChannel(s)                               : 2 channels\nSampling rate                            : 44.1 KHz\nCompression mode                         : Lossy\nStream size                              : 66.9 MiB (8%)\nAlignment                                : Aligned on interleaves\nInterleave, duration                     : 26 ms (0.78 video frame)\nWriting library                          : LAME3.98.2\n\n\n\n\n-------------------------------------------------------------------------------\nGenerated with Cool NFO Creator - http://fly.to/coolbeans\n-------------------------------------------------------------------------------\n","torrent":{"xt":"urn:btih:29bb7add849732c9b76de8698e54730d9d4515ea","amp;dn":"Finders+Keepers+-+The+Root+of+All+Evil+%282013%29+WEBRip","amp;tr":["udp%3A%2F%2Ftracker.openbittorrent.com%3A80","udp%3A%2F%2Fopen.demonii.com%3A1337","udp%3A%2F%2Ftracker.coppersurfer.tk%3A6969","udp%3A%2F%2Fexodus.desync.com%3A6969"],"infoHash":"29bb7add849732c9b76de8698e54730d9d4515ea","infoHashBuffer":{"type":"Buffer","data":[41,187,122,221,132,151,50,201,183,109,232,105,142,84,115,13,157,69,21,234]},"announce":[],"urlList":[]}}